<?xml version="1.0" standalone="no"?>
<!DOCTYPE svg PUBLIC "-//W3C//DTD SVG 20010904//EN"
 "http://www.w3.org/TR/2001/REC-SVG-20010904/DTD/svg10.dtd">
<svg version="1.0" xmlns="http://www.w3.org/2000/svg"
 width="500.000000pt" height="500.000000pt" viewBox="0 0 500.000000 500.000000"
 preserveAspectRatio="xMidYMid meet">

<g transform="translate(0.000000,500.000000) scale(0.100000,-0.100000)"
fill="#000000" stroke="none">
<path d="M2690 4534 c-45 -19 -2513 -2483 -2541 -2536 -22 -44 -25 -106 -5
-151 17 -40 291 -312 329 -326 43 -17 96 -13 141 9 28 13 439 418 1288 1267
1081 1083 1248 1253 1257 1288 26 97 12 126 -147 287 -173 176 -227 203 -322
162z"/>
<path d="M3105 3251 c-48 -22 -309 -283 -324 -324 -21 -54 -14 -120 19 -168
49 -74 1539 -1556 1582 -1574 48 -19 111 -19 151 1 39 20 293 268 314 308 19
36 20 124 2 158 -8 14 -361 375 -786 802 -575 578 -783 782 -815 796 -54 24
-92 25 -143 1z"/>
<path d="M2255 2404 c-42 -21 -1242 -1222 -1260 -1261 -19 -39 -19 -104 -1
-146 17 -40 291 -312 329 -326 40 -15 91 -14 135 4 25 11 165 144 432 410
l396 395 44 0 44 0 351 -349 c192 -192 364 -356 382 -365 43 -22 115 -20 161
3 20 11 98 81 173 158 124 125 137 143 147 187 6 27 9 54 7 60 -2 6 -6 25 -10
41 -5 22 -150 174 -578 604 -328 329 -586 579 -604 587 -42 18 -111 18 -148
-2z"/>
</g>
</svg>
